PathFileType	4	(X/Y/Z)	C:\Users\Basilio\Documents\Thesis Gigler\squatting_fais\c3dfiles\077\SJ_pre3\markers_experimental.trc
DataRate	CameraRate	NumFrames	NumMarkers	Units	OrigDataRate	OrigDataStartFrame	OrigNumFrames
200.000000	200.000000	4	60	mm	200.000000	177	1422
Frame#	Time	FHD			LBHD			RBHD			C7			T10			CLAV			LSHO			LUUPA			LMUPA			LDUPA			LLEP			LMEP			LRAD			LUL			LRFIN			RSHO			RUPA1			RMUPA			RDUPA			RLEP			RMEP			RRAD			RUL			RUFIN			LASI			RASI			USACR			LSACR			RSACR			LTHI1			LTHI2			LTHI3			LTHI4			LLFC			LMFC			LTIB1			LTIB2			LTIB3			LTIB4			LLMAL			LHEE			LMT1			LMT2			LMT5			RTHI			RTHI2			RTHI3			RTHI4			RLFC			RMFC			RTIB1			RTIB2			RTIB3			RTIB4			RLMAL			RMMAL			RHEE			RMT1			RMT2			RMT5			
		X1	Y1	Z1	X2	Y2	Z2	X3	Y3	Z3	X4	Y4	Z4	X5	Y5	Z5	X6	Y6	Z6	X7	Y7	Z7	X8	Y8	Z8	X9	Y9	Z9	X10	Y10	Z10	X11	Y11	Z11	X12	Y12	Z12	X13	Y13	Z13	X14	Y14	Z14	X15	Y15	Z15	X16	Y16	Z16	X17	Y17	Z17	X18	Y18	Z18	X19	Y19	Z19	X20	Y20	Z20	X21	Y21	Z21	X22	Y22	Z22	X23	Y23	Z23	X24	Y24	Z24	X25	Y25	Z25	X26	Y26	Z26	X27	Y27	Z27	X28	Y28	Z28	X29	Y29	Z29	X30	Y30	Z30	X31	Y31	Z31	X32	Y32	Z32	X33	Y33	Z33	X34	Y34	Z34	X35	Y35	Z35	X36	Y36	Z36	X37	Y37	Z37	X38	Y38	Z38	X39	Y39	Z39	X40	Y40	Z40	X41	Y41	Z41	X42	Y42	Z42	X43	Y43	Z43	X44	Y44	Z44	X45	Y45	Z45	X46	Y46	Z46	X47	Y47	Z47	X48	Y48	Z48	X49	Y49	Z49	X50	Y50	Z50	X51	Y51	Z51	X52	Y52	Z52	X53	Y53	Z53	X54	Y54	Z54	X55	Y55	Z55	X56	Y56	Z56	X57	Y57	Z57	X58	Y58	Z58	X59	Y59	Z59	X60	Y60	Z60	

178	0.885	-252.7796478271485	1830.589599609375	-921.7283325195315	-382.1390991210938	1706.853759765625	-989.2712402343752	-388.0221557617189	1705.769897460938	-843.065612792969	-422.924530029297	1570.04736328125	-917.330261230469	-441.0852966308595	1243.4169921875	-914.2205810546877	-253.3553009033204	1519.925170898438	-916.5024414062502	-323.2286682128907	1545.40576171875	-1107.646728515625	-369.6342468261719	1403.872314453125	-1269.880004882813	-332.0936889648438	1367.642211914063	-1274.76904296875	-378.5225219726563	1352.187622070313	-1313.807983398438	-371.5718078613282	1290.970336914063	-1346.871215820313	-446.5337829589845	1265.312255859375	-1310.282348632813	-328.0009765625001	1066.098754882813	-1143.449096679688	-283.7227172851563	1025.46240234375	-1197.47412109375	-281.3653259277344	1046.577514648438	-1087.806030273438	-295.8390808105469	1549.690795898438	-725.1619262695314	-364.7900695800782	1416.509765625	-553.3115844726564	-335.6098937988282	1376.128662109375	-550.7458496093751	-378.1906433105469	1361.704833984375	-510.5547790527345	-378.5295715332032	1296.516845703125	-481.6360168457032	-459.1624755859376	1277.519165039063	-515.8074340820314	-353.3830566406251	1067.616333007813	-667.5579223632814	-293.7052307128907	1041.014282226563	-622.5206909179689	-299.9735107421876	1068.888793945313	-720.0998535156251	-247.530746459961	1035.261596679688	-1047.230102539063	-256.2086181640626	1048.263427734375	-771.4105224609377	-455.7154846191407	1131.343017578125	-910.3210449218752	-461.3502197265626	1100.681640625	-938.486267089844	-465.673309326172	1100.199584960938	-883.1967773437502	-363.9619750976563	838.1271972656252	-1128.016723632813	-347.9325866699219	755.2118530273439	-1139.19873046875	-299.3958740234376	748.9393310546876	-1134.600341796875	-384.2046508789064	706.0469360351564	-1129.563720703125	-377.2478942871094	557.6046142578126	-1128.855712890625	-348.6234741210938	509.5062561035157	-1007.590698242188	-334.7550659179688	335.8515319824219	-1127.036743164063	-383.2084655761719	305.2402038574219	-1197.9482421875	-342.9787902832032	298.6266174316407	-1173.569458007813	-337.2461242675782	213.0279846191407	-1162.650756835938	-401.8372192382814	102.0725021362305	-1217.382690429688	-437.7483215332032	45.78326034545899	-1163.454711914063	-224.4706420898438	59.87214279174806	-1207.051879882813	-235.4975891113282	61.49302291870119	-1248.160400390625	-349.5202941894532	100.2949676513672	-1143.868774414063	-405.1732482910157	733.6622314453126	-686.3685302734376	-375.7689819335938	674.7547607421876	-671.8005981445314	-342.0083923339844	671.8668823242189	-670.0584106445314	-409.7969970703126	601.7297973632814	-686.1417846679689	-413.1272583007814	533.5292968750001	-678.9008178710939	-351.3868408203126	496.7071838378907	-789.5458984375002	-354.9957275390626	406.4817199707032	-652.8118896484376	-419.5749511718751	327.7248840332032	-622.8154296875001	-372.7022705078126	324.1948547363282	-628.3896484375001	-352.1221923828126	274.8828125000001	-653.7374267578126	-413.471649169922	98.19998168945315	-597.5115356445314	-359.6961364746094	95.47951507568361	-673.4887084960939	-450.4161376953126	45.28881835937501	-661.9967041015626	-240.2070770263672	60.19432830810548	-576.2584228515626	-255.5970916748047	61.5946388244629	-542.1679687500001	-285.7464599609376	41.83261108398438	-500.3184814453126	
179	0.89	-252.5650329589844	1830.685546875	-921.6840820312502	-381.9634399414063	1707.489990234375	-989.281188964844	-387.7308959960939	1705.771240234375	-842.9925537109377	-422.6329650878907	1570.106811523438	-917.284118652344	-440.8374023437501	1243.433349609375	-914.277038574219	-253.2038269042969	1519.89501953125	-916.469909667969	-323.0892333984376	1545.4853515625	-1107.627075195313	-369.4267272949219	1403.921752929688	-1270.015258789063	-331.8374633789063	1367.68994140625	-1274.740844726563	-379.4655151367188	1352.355834960938	-1313.808471679688	-371.2338867187501	1291.010375976563	-1346.827514648438	-446.3027648925782	1265.3515625	-1310.317138671875	-327.9002380371094	1066.1162109375	-1143.463623046875	-283.6597595214844	1025.517944335938	-1197.465209960938	-281.2213134765626	1046.595581054688	-1087.858642578125	-295.5340576171876	1549.647583007813	-725.1336059570314	-364.5957641601563	1416.419555664063	-553.2870483398439	-335.4335937500001	1376.102661132813	-550.7734375000001	-378.0001220703126	1361.70751953125	-510.5539550781251	-378.3914184570313	1296.401733398438	-481.6124572753907	-459.034881591797	1277.453491210938	-515.8243408203126	-353.2214355468751	1067.564453125	-667.5911254882814	-293.5960693359376	1040.975830078125	-622.6027832031251	-299.8195800781251	1068.930541992188	-720.1055908203126	-247.3004150390626	1035.302124023438	-1047.228881835938	-256.0472106933594	1048.27587890625	-771.4172973632815	-455.6169433593751	1131.338134765625	-910.352722167969	-461.1753234863282	1100.694213867188	-938.5323486328127	-465.6089172363282	1100.28857421875	-883.2731933593752	-363.8625183105469	838.1521606445315	-1127.996337890625	-347.7909545898438	755.2507934570314	-1139.209594726563	-299.0107116699219	748.8659667968751	-1134.570922851563	-383.9201049804688	706.0231323242189	-1129.536010742188	-377.0922851562501	557.6597900390626	-1128.898559570313	-348.5481567382813	509.4515075683595	-1007.655334472656	-334.6746826171876	335.8842773437501	-1127.0791015625	-382.6843261718751	305.7679443359376	-1197.738403320313	-342.8834533691407	298.6433715820313	-1173.53125	-337.1018371582032	212.9176788330079	-1162.658447265625	-402.2505798339845	101.6339645385742	-1217.210815429688	-437.7342224121095	45.77313995361329	-1163.418701171875	-224.4595489501954	59.82373428344728	-1207.031005859375	-235.5217895507813	61.48176574707033	-1248.193481445313	-349.5201721191407	100.4025039672852	-1143.8466796875	-404.8699645996095	733.6231079101564	-686.2847900390626	-375.4861145019532	674.7409057617189	-671.7608642578126	-341.6429748535157	671.9923706054689	-669.9624633789064	-409.5659484863282	601.6834716796876	-686.1284790039064	-412.8302612304689	533.5321044921876	-678.8280029296876	-350.1380615234376	496.6355285644532	-789.1030883789065	-354.7391357421876	406.3990173339845	-652.9254760742189	-419.343719482422	327.7084045410157	-622.7868652343751	-372.4893798828126	324.3025207519532	-628.3112182617189	-351.9833374023438	274.8826293945313	-653.7641601562501	-413.476287841797	98.18400573730472	-597.5156860351564	-359.7093505859376	95.41219329833986	-673.4908447265626	-450.4193420410157	45.29360580444337	-662.0153808593751	-240.2324981689454	60.18990707397462	-576.2900390625001	-255.5774841308594	61.58589935302736	-542.1052246093751	-285.7679443359376	41.81998443603516	-500.3209838867189	
180	0.895	-252.5236968994141	1830.95166015625	-921.7781982421877	-381.5802612304688	1707.20361328125	-989.1345825195315	-387.4480285644532	1705.730346679688	-842.9973144531252	-422.362030029297	1570.130859375	-917.2573242187502	-440.6237792968751	1243.460815429688	-914.312683105469	-252.7878417968751	1519.737548828125	-916.377136230469	-322.8541564941407	1545.490356445313	-1107.60693359375	-369.3468627929688	1404.010375976563	-1269.995239257813	-331.0617980957032	1367.806274414063	-1274.879516601563	-377.8969116210938	1352.173583984375	-1313.77001953125	-370.9127197265626	1291.074340820313	-1346.763061523438	-446.0485839843751	1265.415771484375	-1310.28173828125	-327.7673645019532	1066.199584960938	-1143.518310546875	-283.3876342773438	1025.48486328125	-1197.432495117188	-281.0097045898438	1046.649291992188	-1087.870239257813	-295.1940612792969	1549.566284179688	-725.1159667968751	-364.3414611816407	1416.416015625	-553.2212524414064	-335.2153320312501	1376.029174804688	-550.6777343750001	-377.8605346679688	1361.628173828125	-510.5430908203126	-378.2615661621094	1296.3017578125	-481.5963439941407	-458.8668212890626	1277.447875976563	-515.8452758789064	-353.0431213378907	1067.559204101563	-667.6094360351564	-293.4323730468751	1040.99072265625	-622.6104125976564	-299.6234741210938	1068.962280273438	-720.0935668945314	-247.1776733398438	1035.341552734375	-1047.17431640625	-255.922103881836	1048.37109375	-771.4909667968752	-455.5556030273439	1131.402465820313	-910.3900146484377	-461.0590209960939	1100.738403320313	-938.5489501953127	-465.4148559570314	1100.281494140625	-883.333923339844	-363.7310791015626	838.1235351562502	-1128.020385742188	-346.7453613281251	754.8810424804689	-1138.933227539063	-298.8991394042969	748.8887329101564	-1134.58349609375	-383.7184753417969	706.0028686523439	-1129.552124023438	-376.8794860839844	557.6451416015626	-1128.947387695313	-348.4608154296876	509.427947998047	-1007.697875976563	-335.0648803710938	336.0482788085938	-1127.390625	-384.0354309082032	305.2754211425782	-1197.126586914063	-342.7883605957032	298.6683654785157	-1173.570922851563	-336.9999694824219	212.9385528564454	-1162.574340820313	-402.1604919433595	101.536491394043	-1217.132568359375	-437.715057373047	45.78200912475587	-1163.447875976563	-224.4116973876954	59.70156478881837	-1207.078491210938	-235.6830596923829	61.54782485961915	-1248.304931640625	-349.4893798828126	100.3417510986328	-1143.872436523438	-404.6356201171876	733.6218872070314	-686.1859130859376	-375.1386413574219	674.8371582031251	-671.6704711914064	-341.3430480957032	672.0373535156251	-669.8814697265626	-409.2435607910157	601.7366333007814	-686.0939941406251	-412.547576904297	533.5134887695314	-678.7505493164064	-350.9121704101563	496.7856445312501	-789.4309692382815	-354.5036315917969	406.3851318359376	-652.9023437500001	-419.1179504394532	327.8374328613282	-622.7644653320314	-372.3211669921876	324.2413330078126	-628.2720947265626	-351.8846435546876	274.9194946289063	-653.7202148437501	-413.389617919922	98.25880432128909	-597.5351562500001	-358.9904785156251	95.14984130859376	-673.1733398437501	-450.362518310547	45.28039932250977	-662.0245971679689	-240.286361694336	60.17121505737306	-576.3132934570314	-255.5908203125001	61.58752441406251	-542.1554565429689	-285.7610778808594	41.81513214111329	-500.3153381347657	
181	0.9	-252.225814819336	1831.110107421875	-921.7744750976565	-381.2481384277344	1708.574096679688	-989.272155761719	-387.0609130859376	1705.793579101563	-843.0386352539065	-422.0123596191407	1570.070190429688	-917.293640136719	-440.4578857421876	1243.477905273438	-914.282165527344	-252.5491638183594	1519.852172851563	-916.4102783203127	-322.5905761718751	1545.434814453125	-1107.551025390625	-368.9748535156251	1404.125854492188	-1270.007202148438	-331.1451721191407	1367.755004882813	-1274.776245117188	-378.9553527832032	1352.451171875	-1313.76953125	-370.5974426269532	1291.128173828125	-1346.739379882813	-445.8374023437501	1265.540771484375	-1310.247680664063	-327.5872802734376	1066.133666992188	-1143.479125976563	-283.3708801269532	1025.605102539063	-1197.5	-280.9630432128907	1046.649047851563	-1087.894775390625	-294.8540344238282	1549.605346679688	-724.9922485351564	-364.1905212402344	1416.321411132813	-553.2407226562501	-335.0328369140626	1375.884643554688	-550.6017456054689	-377.6946411132813	1361.568969726563	-510.5039062500001	-378.0943298339844	1296.320434570313	-481.545379638672	-458.7656860351564	1277.421020507813	-515.8233032226564	-353.0357666015626	1067.527465820313	-667.5788574218751	-293.2796936035157	1040.971435546875	-622.5505981445314	-299.4580383300782	1069.005493164063	-720.0924072265626	-247.1526489257813	1035.471069335938	-1047.1611328125	-255.8913879394532	1048.417846679688	-771.5429687500002	-455.3484191894532	1131.417846679688	-910.4778442382815	-460.9463806152345	1100.75048828125	-938.6202392578127	-465.2639770507814	1100.25146484375	-883.3945922851565	-363.6117248535157	838.293884277344	-1128.002319335938	-346.6057434082032	755.0078735351564	-1138.963623046875	-300.2708740234376	749.3181762695314	-1135.091430664063	-383.6205444335938	706.0347900390626	-1129.533325195313	-376.7043151855469	557.6445922851564	-1128.983032226563	-348.2961730957032	509.4368286132814	-1007.7314453125	-334.9585571289063	336.0162048339844	-1127.419189453125	-383.8659057617188	305.6103820800782	-1197.261474609375	-342.7077331542969	298.5958862304688	-1173.575561523438	-336.9545593261719	212.9935455322266	-1162.639892578125	-402.2973632812501	101.5688934326172	-1217.155639648438	-437.7018127441407	45.80290222167969	-1163.420654296875	-224.3835601806641	59.71300125122072	-1207.092529296875	-235.5585174560547	61.47521972656251	-1248.2158203125	-349.4761657714844	100.3289260864258	-1143.866455078125	-404.3537597656251	733.6472778320314	-686.1681518554689	-374.8987731933594	674.7538452148439	-671.6874389648439	-341.0317993164063	672.1234741210939	-669.7667236328126	-408.9817199707032	601.6900634765626	-686.0599365234376	-412.2460021972657	533.4805908203126	-678.6805419921876	-349.8537292480469	496.7125549316407	-789.1058349609377	-354.3348083496094	406.2215576171876	-652.9195556640626	-418.9114379882814	327.8059387207032	-622.6773071289064	-371.9912109375001	324.4373168945313	-628.2500000000001	-351.7412109375001	274.8942565917969	-653.7343139648439	-413.3861694335939	98.26368713378909	-597.5057983398439	-358.9477539062501	95.13604736328126	-673.1707763671876	-450.3646545410157	45.30863571166993	-662.0258789062501	-240.2720336914063	60.18581008911134	-576.3032836914064	-255.5590362548829	61.6369094848633	-542.1038208007814	-285.7548522949219	41.82012939453126	-500.3066406250001	
